<svg width="139" height="72" viewBox="0 0 139 72" fill="none" xmlns="http://www.w3.org/2000/svg">
<path d="M137 63.875L137 7.625L125.75 2M137 63.875L125.75 69.5L80.75 47M137 63.875L92 41.375M125.75 2L125.75 47L103.25 35.75L114.5 30.125L69.5 52.625L24.5 30.125L35.75 35.75L13.25 47L13.25 1.99999M125.75 2L69.5 30.125L13.25 1.99999M114.5 41.375L114.5 18.875L69.5 41.375L24.5 18.875L24.5 41.375M2 63.875L2 7.62499L13.25 1.99999M2 63.875L13.25 69.5L58.25 47M2 63.875L47 41.375" stroke="white" stroke-width="3.375" stroke-linejoin="round"/>
</svg>
